<svg width="49" height="28" viewBox="0 0 49 28" fill="none" xmlns="http://www.w3.org/2000/svg">
<path fill-rule="evenodd" clip-rule="evenodd" d="M0.022695 5.91304V1.3913C0.022695 0.622908 0.649202 0 1.42204 0H9.11842C13.1126 0 15.8214 4.03995 14.2852 7.70569L9.5759 18.9431C9.19184 19.8596 9.86906 20.8696 10.8676 20.8696H13.8412C14.614 20.8696 15.2405 21.4925 15.2405 22.2609V26.6087C15.2405 27.3771 14.614 28 13.8412 28H5.60355C1.56807 28 -1.14137 23.883 0.474469 20.2064L5.28851 9.25274C5.69247 8.33359 5.01511 7.30435 4.00625 7.30435H1.42204C0.649202 7.30435 0.022695 6.68144 0.022695 5.91304ZM18.0392 5.56522V26.6087C18.0392 27.3771 18.6657 28 19.4386 28H24.5112C25.284 28 25.9105 27.3771 25.9105 26.6087V22.2609C25.9105 21.4925 26.537 20.8696 27.3099 20.8696H27.6597C28.4325 20.8696 29.059 21.4925 29.059 22.2609V26.6087C29.059 27.3771 29.6856 28 30.4584 28H35.7059C36.4788 28 37.1053 27.3771 37.1053 26.6087V5.56522C37.1053 2.49163 34.5992 0 31.5079 0H23.6366C20.5453 0 18.0392 2.49163 18.0392 5.56522ZM39.9039 1.3913V26.6087C39.9039 27.3771 40.5305 28 41.3033 28H46.9007C47.6735 28 48.3 27.3771 48.3 26.6087V1.3913C48.3 0.622907 47.6735 0 46.9007 0H41.3033C40.5305 0 39.9039 0.622908 39.9039 1.3913ZM25.9105 8.86957V12C25.9105 12.8644 26.6153 13.5652 27.4848 13.5652C28.3542 13.5652 29.059 12.8644 29.059 12V8.86957C29.059 8.00512 28.3542 7.30435 27.4848 7.30435C26.6153 7.30435 25.9105 8.00512 25.9105 8.86957Z" fill="#9747FF"/>
</svg>
