<svg width="86" height="72" viewBox="0 0 86 72" fill="none" xmlns="http://www.w3.org/2000/svg">
<g clip-path="url(#clip0_62_2699)">
<path d="M26.98 58C26.3533 58 26.04 57.68 26.04 57.04V45.72H22.6C21.96 45.72 21.64 45.4333 21.64 44.86C21.64 44.2867 21.96 44 22.6 44H31.32C31.9467 44 32.26 44.2867 32.26 44.86C32.26 45.4333 31.9467 45.72 31.32 45.72H27.88V57.04C27.88 57.68 27.58 58 26.98 58ZM41.6188 58.3C40.3521 58.3 39.2321 58 38.2588 57.4C37.2854 56.8 36.5188 55.9533 35.9588 54.86C35.4121 53.7667 35.1388 52.48 35.1388 51C35.1388 49.52 35.4121 48.2333 35.9588 47.14C36.5188 46.0333 37.2854 45.18 38.2588 44.58C39.2321 43.9667 40.3521 43.66 41.6188 43.66C42.8854 43.66 43.9988 43.9667 44.9588 44.58C45.9321 45.18 46.6921 46.0333 47.2388 47.14C47.7988 48.2333 48.0788 49.52 48.0788 51C48.0788 52.48 47.7988 53.7667 47.2388 54.86C46.6921 55.9533 45.9321 56.8 44.9588 57.4C43.9988 58 42.8854 58.3 41.6188 58.3ZM41.6188 56.5C42.5254 56.5 43.3188 56.2733 43.9988 55.82C44.6921 55.3667 45.2254 54.7333 45.5988 53.92C45.9854 53.0933 46.1788 52.12 46.1788 51C46.1788 49.8667 45.9854 48.8933 45.5988 48.08C45.2254 47.2533 44.6921 46.6133 43.9988 46.16C43.3188 45.7067 42.5254 45.48 41.6188 45.48C40.7121 45.48 39.9121 45.7067 39.2188 46.16C38.5388 46.6133 38.0054 47.2533 37.6188 48.08C37.2321 48.8933 37.0388 49.8667 37.0388 51C37.0388 52.12 37.2321 53.0933 37.6188 53.92C38.0054 54.7333 38.5388 55.3667 39.2188 55.82C39.9121 56.2733 40.7121 56.5 41.6188 56.5ZM52.9681 58C52.3681 58 52.0681 57.68 52.0681 57.04V44.94C52.0681 44.3133 52.3815 44 53.0081 44H58.3281C59.6481 44 60.6681 44.3067 61.3881 44.92C62.1215 45.5333 62.4881 46.5067 62.4881 47.84C62.4881 49.1867 62.1215 50.1733 61.3881 50.8C60.6681 51.4267 59.6481 51.74 58.3281 51.74H53.8881V57.04C53.8881 57.68 53.5815 58 52.9681 58ZM53.8881 50H58.1081C58.9081 50 59.5148 49.8333 59.9281 49.5C60.3548 49.1533 60.5681 48.6 60.5681 47.84C60.5681 47.0933 60.3548 46.5533 59.9281 46.22C59.5148 45.8867 58.9081 45.72 58.1081 45.72H53.8881V50Z" fill="#9747FF"/>
<path d="M37.1758 10.5391C39.9466 6.38324 46.0534 6.38324 48.8242 10.5391L81.876 60.1172C84.9772 64.7691 81.6426 71 76.0518 71H9.94824C4.35737 71 1.02277 64.7691 4.12402 60.1172L37.1758 10.5391Z" stroke="#9747FF" stroke-width="2"/>
</g>
<defs>
<clipPath id="clip0_62_2699">
<rect width="86" height="72" fill="white"/>
</clipPath>
</defs>
</svg>
